<?xml version="1.0" standalone="no"?>
<!DOCTYPE svg PUBLIC "-//W3C//DTD SVG 20010904//EN"
 "http://www.w3.org/TR/2001/REC-SVG-20010904/DTD/svg10.dtd">
<svg version="1.0" xmlns="http://www.w3.org/2000/svg"
 width="96.000000pt" height="96.000000pt" viewBox="0 0 96.000000 96.000000"
 preserveAspectRatio="xMidYMid meet">

<g transform="translate(0.000000,96.000000) scale(0.100000,-0.100000)"
fill="#000000" stroke="none">
<path d="M225 815 l-25 -24 0 -335 0 -336 23 9 c12 5 75 32 139 60 l118 50
117 -50 c65 -28 128 -55 141 -60 l22 -9 0 336 0 335 -25 24 -24 25 -231 0
-231 0 -24 -25z m455 -315 l0 -259 -82 36 c-46 20 -94 38 -108 40 -15 3 -54
-9 -95 -27 -38 -18 -80 -36 -92 -41 l-23 -9 0 260 0 260 200 0 200 0 0 -260z"/>
</g>
</svg>
