<?xml version="1.0" standalone="no"?>
<!DOCTYPE svg PUBLIC "-//W3C//DTD SVG 20010904//EN"
 "http://www.w3.org/TR/2001/REC-SVG-20010904/DTD/svg10.dtd">
<svg version="1.0" xmlns="http://www.w3.org/2000/svg"
 width="96.000000pt" height="96.000000pt" viewBox="0 0 96.000000 96.000000"
 preserveAspectRatio="xMidYMid meet">

<g transform="translate(0.000000,96.000000) scale(0.100000,-0.100000)"
fill="#000000" stroke="none">
<path d="M360 820 c0 -19 -7 -20 -100 -20 l-100 0 0 -40 c0 -33 3 -40 20 -40
20 0 20 -7 20 -275 l0 -276 25 -24 24 -25 231 0 231 0 24 25 25 24 0 276 c0
268 0 275 20 275 17 0 20 7 20 40 l0 40 -100 0 c-93 0 -100 1 -100 20 0 19 -7
20 -120 20 -113 0 -120 -1 -120 -20z m320 -360 l0 -260 -200 0 -200 0 0 260 0
260 200 0 200 0 0 -260z"/>
<path d="M360 460 l0 -180 40 0 40 0 0 180 0 180 -40 0 -40 0 0 -180z"/>
<path d="M520 460 l0 -180 40 0 40 0 0 180 0 180 -40 0 -40 0 0 -180z"/>
</g>
</svg>
