<svg width="87" height="57" viewBox="0 0 87 57" fill="none" xmlns="http://www.w3.org/2000/svg">
<mask id="path-1-inside-1_1308_883" fill="white">
<rect x="10" width="18" height="9.5" rx="1"/>
</mask>
<rect x="10" width="18" height="9.5" rx="1" stroke="black" stroke-width="7" mask="url(#path-1-inside-1_1308_883)"/>
<mask id="path-2-inside-2_1308_883" fill="white">
<rect x="59" width="18" height="9.5" rx="1"/>
</mask>
<rect x="59" width="18" height="9.5" rx="1" stroke="black" stroke-width="7" mask="url(#path-2-inside-2_1308_883)"/>
<rect x="1.75" y="7.75" width="83.5" height="47.5" rx="4.25" stroke="black" stroke-width="3.5"/>
<line y1="47.25" x2="35" y2="47.25" stroke="black" stroke-width="3.5"/>
<line x1="52" y1="47.25" x2="87" y2="47.25" stroke="black" stroke-width="3.5"/>
<line y1="28.25" x2="30" y2="28.25" stroke="black" stroke-width="3.5"/>
<line x1="56" y1="28.25" x2="86" y2="28.25" stroke="black" stroke-width="3.5"/>
<circle cx="43.5" cy="35.5" r="14.75" stroke="black" stroke-width="3.5"/>
<circle cx="43.5" cy="35.5" r="4.75" stroke="black" stroke-width="3.5"/>
<mask id="path-10-inside-3_1308_883" fill="white">
<rect x="6" y="12" width="15" height="10" rx="1"/>
</mask>
<rect x="6" y="12" width="15" height="10" rx="1" stroke="black" stroke-width="7" mask="url(#path-10-inside-3_1308_883)"/>
<mask id="path-11-inside-4_1308_883" fill="white">
<rect x="64" y="12" width="15" height="10" rx="1"/>
</mask>
<rect x="64" y="12" width="15" height="10" rx="1" stroke="black" stroke-width="7" mask="url(#path-11-inside-4_1308_883)"/>
<circle cx="25" cy="17" r="2" fill="black"/>
</svg>
