<svg width="95" height="53" viewBox="0 0 95 53" fill="none" xmlns="http://www.w3.org/2000/svg">
<rect x="6.25" y="10.25" width="82.5" height="41.5" rx="1.75" stroke="black" stroke-width="2.5"/>
<circle cx="5" cy="22" r="3.75" fill="white" stroke="black" stroke-width="2.5"/>
<circle cx="90" cy="22" r="3.75" fill="white" stroke="black" stroke-width="2.5"/>
<line x1="9" y1="20.75" x2="86" y2="20.75" stroke="black" stroke-width="2.5"/>
<circle cx="48.5" cy="30.5" r="17.25" fill="white" stroke="black" stroke-width="2.5"/>
<line x1="33.25" y1="39" x2="33.25" y2="52" stroke="black" stroke-width="2.5"/>
<line x1="33.25" y1="39" x2="33.25" y2="52" stroke="black" stroke-width="2.5"/>
<line x1="64.25" y1="39" x2="64.25" y2="52" stroke="black" stroke-width="2.5"/>
<line x1="6" y1="45.75" x2="33" y2="45.75" stroke="black" stroke-width="2.5"/>
<line x1="63" y1="45.75" x2="90" y2="45.75" stroke="black" stroke-width="2.5"/>
<mask id="path-11-inside-1_1314_980" fill="white">
<rect x="11" y="4" width="14" height="7" rx="1"/>
</mask>
<rect x="11" y="4" width="14" height="7" rx="1" fill="white" stroke="black" stroke-width="5" mask="url(#path-11-inside-1_1314_980)"/>
<mask id="path-12-inside-2_1314_980" fill="white">
<rect x="69" width="13" height="8" rx="1"/>
</mask>
<rect x="69" width="13" height="8" rx="1" fill="white" stroke="black" stroke-width="5" mask="url(#path-12-inside-2_1314_980)"/>
<mask id="path-13-inside-3_1314_980" fill="white">
<rect x="66" y="4" width="19" height="7" rx="1"/>
</mask>
<rect x="66" y="4" width="19" height="7" rx="1" fill="white" stroke="black" stroke-width="5" mask="url(#path-13-inside-3_1314_980)"/>
<line x1="35.206" y1="10.3289" x2="32.206" y2="21.3289" stroke="black" stroke-width="2.5"/>
<line y1="-1.25" x2="11.4018" y2="-1.25" transform="matrix(0.263117 0.964764 0.964764 -0.263117 63 10)" stroke="black" stroke-width="2.5"/>
<line x1="33.0657" y1="10.1695" x2="41.0657" y2="1.16954" stroke="black" stroke-width="2.5"/>
<line y1="-1.25" x2="12.0416" y2="-1.25" transform="matrix(-0.664364 -0.747409 -0.747409 0.664364 63 11)" stroke="black" stroke-width="2.5"/>
<path d="M40.1001 1.6001H56.9001" stroke="black" stroke-width="2.5"/>
<circle cx="48.5" cy="30.5" r="13.25" stroke="black" stroke-width="2.5"/>
<circle cx="48.5" cy="30.5" r="7.25" stroke="black" stroke-width="2.5"/>
</svg>
