<?xml version="1.0" standalone="no"?>
<!DOCTYPE svg PUBLIC "-//W3C//DTD SVG 20010904//EN"
 "http://www.w3.org/TR/2001/REC-SVG-20010904/DTD/svg10.dtd">
<svg version="1.0" xmlns="http://www.w3.org/2000/svg"
 width="196.000000pt" height="133.000000pt" viewBox="0 0 196.000000 133.000000"
 preserveAspectRatio="xMidYMid meet">

<g transform="translate(0.000000,133.000000) scale(0.100000,-0.100000)"
fill="#000000" stroke="none">
<path d="M1644 1197 c-3 -8 -4 -34 -2 -58 l3 -44 95 0 95 0 0 55 0 55 -93 3
c-73 2 -94 0 -98 -11z"/>
<path d="M881 1079 c-82 -16 -189 -75 -250 -137 -187 -192 -187 -493 0 -684
106 -108 271 -164 420 -141 198 31 353 172 404 368 88 342 -222 663 -574 594z
m231 -145 c50 -17 126 -72 156 -113 12 -16 22 -33 22 -36 0 -10 -46 -5 -92 12
-58 21 -94 8 -139 -48 -24 -31 -37 -39 -63 -39 -41 0 -76 25 -76 55 0 64 -47
105 -122 105 -41 1 -42 1 -23 16 84 67 227 87 337 48z m-259 -110 c10 -3 20
-18 22 -33 17 -84 45 -111 119 -114 44 -2 49 1 90 46 24 26 51 47 59 47 9 0
41 -7 72 -15 31 -8 62 -12 69 -9 14 5 36 -35 36 -66 0 -17 -2 -18 -27 -4 -35
18 -47 18 -84 -2 -43 -22 -63 -73 -49 -125 12 -44 7 -57 -44 -130 -23 -31 -31
-55 -34 -99 l-4 -59 -45 -7 c-61 -9 -132 1 -191 26 -49 21 -50 22 -45 58 3 29
-1 45 -21 71 -27 36 -26 51 3 51 35 0 46 29 47 121 l1 89 -37 0 c-49 0 -56 10
-21 31 43 26 54 51 34 79 -14 20 -22 22 -65 17 -50 -6 -52 -4 -24 32 8 10 25
12 67 8 30 -4 63 -9 72 -13z m-81 -69 c0 -5 -12 -17 -28 -26 -38 -20 -44 -61
-12 -83 12 -9 29 -16 38 -16 13 0 16 -13 15 -67 0 -60 -2 -68 -20 -71 -51 -10
-59 -49 -21 -101 14 -18 22 -40 19 -48 -9 -22 -65 38 -98 105 -34 68 -43 164
-23 232 11 38 20 49 58 68 45 23 70 25 72 7z m532 -136 c51 -60 27 -157 -64
-253 -50 -53 -114 -96 -126 -84 -15 16 10 89 48 139 40 53 40 55 34 118 -5 49
-3 69 9 87 23 35 66 32 99 -7z"/>
<path d="M906 607 c-14 -10 -19 -32 -22 -99 -3 -75 -1 -89 17 -112 30 -38 72
-35 115 8 37 37 40 56 22 135 -9 39 -17 52 -37 60 -49 18 -78 21 -95 8z m79
-41 c12 -9 19 -30 23 -67 3 -45 1 -57 -16 -72 -11 -10 -31 -17 -44 -15 -22 3
-23 8 -26 86 -3 80 -2 82 21 82 13 0 31 -6 42 -14z"/>
</g>
</svg>
