<?xml version="1.0" standalone="no"?>
<!DOCTYPE svg PUBLIC "-//W3C//DTD SVG 20010904//EN"
 "http://www.w3.org/TR/2001/REC-SVG-20010904/DTD/svg10.dtd">
<svg version="1.0" xmlns="http://www.w3.org/2000/svg"
 width="160.000000pt" height="160.000000pt" viewBox="0 0 160.000000 160.000000"
 preserveAspectRatio="xMidYMid meet">

<g transform="translate(0.000000,160.000000) scale(0.100000,-0.100000)"
fill="#000000" stroke="none">
<path d="M666 1226 c-255 -173 -351 -244 -368 -271 -17 -28 -18 -52 -16 -302
3 -256 4 -273 24 -299 44 -60 67 -69 174 -69 84 0 103 3 126 21 56 41 67 67
74 169 6 91 8 98 38 128 28 27 40 32 82 32 42 0 54 -5 82 -32 30 -30 32 -37
38 -128 7 -102 18 -128 74 -169 23 -18 42 -21 126 -21 107 0 130 9 174 69 20
26 21 40 21 311 0 262 -1 284 -19 304 -10 11 -116 88 -236 171 -266 184 -254
181 -394 86z m355 -157 c112 -78 207 -146 211 -153 4 -6 8 -123 8 -259 l0
-248 -25 -24 c-21 -22 -33 -25 -93 -25 -104 0 -115 12 -123 135 -5 85 -10 101
-35 137 -16 23 -49 52 -74 66 -84 44 -197 15 -255 -67 -26 -37 -30 -52 -35
-137 -6 -122 -18 -134 -122 -134 -60 0 -72 3 -93 25 l-25 24 0 255 0 254 208
145 c114 80 216 146 228 146 12 1 111 -61 225 -140z"/>
</g>
</svg>
