<?xml version="1.0" standalone="no"?>
<!DOCTYPE svg PUBLIC "-//W3C//DTD SVG 20010904//EN"
 "http://www.w3.org/TR/2001/REC-SVG-20010904/DTD/svg10.dtd">
<svg version="1.0" xmlns="http://www.w3.org/2000/svg"
 width="160.000000pt" height="160.000000pt" viewBox="0 0 160.000000 160.000000"
 preserveAspectRatio="xMidYMid meet">

<g transform="translate(0.000000,160.000000) scale(0.100000,-0.100000)"
fill="#000000" stroke="none">
<path d="M619 1350 c-252 -32 -380 -126 -320 -235 15 -26 48 -157 96 -378 80
-372 69 -346 168 -396 166 -85 359 -78 521 20 52 31 61 41 64 69 3 30 4 31 22
15 10 -9 36 -19 57 -22 32 -4 43 -1 65 22 58 58 43 199 -40 362 -20 37 -20 44
-7 94 8 29 19 87 26 128 6 42 14 81 19 86 14 20 19 58 9 84 -24 62 -94 110
-201 137 -74 18 -377 27 -479 14z m410 -81 c124 -20 214 -75 192 -117 -16 -30
-105 -70 -196 -88 -103 -21 -341 -21 -445 -1 -289 58 -287 153 5 202 98 16
357 19 444 4z m-85 -445 c9 -8 16 -19 16 -24 0 -12 -168 -223 -186 -233 -20
-11 -37 1 -89 62 -50 59 -52 63 -29 85 22 23 31 20 68 -20 l33 -36 63 78 c88
110 97 116 124 88z m299 -250 c1 -40 -2 -68 -9 -71 -5 -2 -28 12 -49 30 l-39
34 18 79 c10 43 21 83 24 89 13 22 53 -94 55 -161z"/>
</g>
</svg>
