<?xml version="1.0" standalone="no"?>
<!DOCTYPE svg PUBLIC "-//W3C//DTD SVG 20010904//EN"
 "http://www.w3.org/TR/2001/REC-SVG-20010904/DTD/svg10.dtd">
<svg version="1.0" xmlns="http://www.w3.org/2000/svg"
 width="160.000000pt" height="160.000000pt" viewBox="0 0 160.000000 160.000000"
 preserveAspectRatio="xMidYMid meet">

<g transform="translate(0.000000,160.000000) scale(0.100000,-0.100000)"
fill="#000000" stroke="none">
<path d="M622 1350 c-184 -19 -312 -69 -360 -140 -25 -38 -24 -67 7 -110 10
-15 46 -161 90 -370 41 -190 78 -353 82 -362 22 -42 159 -100 278 -119 120
-18 259 13 366 83 40 27 51 39 53 65 l3 32 32 -19 c48 -30 90 -26 121 11 48
57 33 187 -42 349 -21 47 -58 116 -80 154 -43 69 -49 86 -33 86 5 0 16 3 25 6
12 5 16 -1 16 -24 0 -16 7 -35 16 -43 27 -22 48 2 59 67 6 32 19 74 29 93 50
93 -41 190 -213 227 -83 17 -339 26 -449 14z m429 -84 c114 -25 190 -77 173
-120 -10 -26 -84 -64 -170 -87 -110 -29 -333 -36 -470 -15 -156 23 -264 71
-264 117 0 38 113 90 235 108 101 15 422 12 496 -3z m-630 -261 c117 -42 401
-59 554 -35 l70 11 23 -28 c33 -41 149 -274 167 -338 18 -59 17 -146 -2 -152
-19 -7 -83 57 -83 82 0 13 9 52 20 86 14 46 16 67 8 76 -13 16 -42 17 -56 1
-16 -21 -41 -114 -47 -181 -11 -119 -13 -124 -51 -146 -66 -39 -149 -61 -231
-61 -95 1 -149 12 -228 50 l-61 29 -63 293 c-34 161 -64 301 -67 311 -6 21 -7
21 47 2z"/>
<path d="M884 808 c-24 -26 -102 -121 -121 -147 -2 -3 -18 10 -36 27 -36 35
-58 40 -77 18 -14 -18 -8 -30 52 -95 48 -52 55 -56 73 -43 12 7 166 198 179
220 7 12 -18 52 -34 52 -3 0 -20 -15 -36 -32z"/>
</g>
</svg>
