<?xml version="1.0" standalone="no"?>
<!DOCTYPE svg PUBLIC "-//W3C//DTD SVG 20010904//EN"
 "http://www.w3.org/TR/2001/REC-SVG-20010904/DTD/svg10.dtd">
<svg version="1.0" xmlns="http://www.w3.org/2000/svg"
 width="160.000000pt" height="160.000000pt" viewBox="0 0 160.000000 160.000000"
 preserveAspectRatio="xMidYMid meet">

<g transform="translate(0.000000,160.000000) scale(0.100000,-0.100000)"
fill="#000000" stroke="none">
<path d="M740 1271 c-150 -46 -220 -204 -150 -341 28 -55 93 -106 152 -120
199 -48 361 157 268 340 -49 95 -172 150 -270 121z"/>
<path d="M445 720 c-74 -37 -125 -115 -125 -190 0 -84 68 -177 145 -199 54
-15 616 -15 670 0 23 7 57 28 81 53 85 84 84 206 -2 292 -58 58 -96 69 -213
58 -117 -10 -271 -11 -411 -1 -94 7 -109 6 -145 -13z"/>
</g>
</svg>
