<?xml version="1.0" standalone="no"?>
<!DOCTYPE svg PUBLIC "-//W3C//DTD SVG 20010904//EN"
 "http://www.w3.org/TR/2001/REC-SVG-20010904/DTD/svg10.dtd">
<svg version="1.0" xmlns="http://www.w3.org/2000/svg"
 width="1864.000000pt" height="620.000000pt" viewBox="0 0 1864.000000 620.000000"
 preserveAspectRatio="xMidYMid meet">

<g transform="translate(0.000000,620.000000) scale(0.100000,-0.100000)"
fill="#000000" stroke="none">
<path d="M5760 4420 c0 -19 -7 -20 -120 -20 -113 0 -120 -1 -120 -20 0 -18 -7
-20 -60 -20 -53 0 -60 -2 -60 -20 0 -17 -7 -20 -40 -20 -33 0 -40 -3 -40 -20
0 -17 -7 -20 -40 -20 -33 0 -40 -3 -40 -20 0 -17 -7 -20 -40 -20 -33 0 -40 -3
-40 -20 0 -13 -7 -20 -20 -20 -13 0 -20 -7 -20 -20 0 -13 -7 -20 -20 -20 -13
0 -20 -7 -20 -20 0 -13 -7 -20 -20 -20 -13 0 -20 -7 -20 -20 0 -13 -7 -20 -20
-20 -13 0 -20 -7 -20 -20 0 -13 -7 -20 -20 -20 -13 0 -20 -7 -20 -20 0 -13 -7
-20 -20 -20 -13 0 -20 -7 -20 -20 0 -13 -7 -20 -20 -20 -17 0 -20 -7 -20 -40
0 -33 -3 -40 -20 -40 -17 0 -20 -7 -20 -40 0 -33 -3 -40 -20 -40 -18 0 -20 -7
-20 -60 0 -53 -2 -60 -20 -60 -18 0 -20 -7 -20 -60 0 -53 -2 -60 -20 -60 -19
0 -20 -7 -20 -140 0 -133 -1 -140 -20 -140 -19 0 -20 -7 -20 -140 l0 -140
-220 0 -220 0 0 -40 c0 -33 -3 -40 -20 -40 -20 0 -20 -7 -20 -320 0 -313 0
-320 20 -320 17 0 20 -7 20 -40 l0 -40 40 0 c33 0 40 -3 40 -20 0 -19 7 -20
160 -20 153 0 160 -1 160 -20 0 -13 7 -20 20 -20 20 0 20 -7 20 -1020 0 -1013
0 -1020 20 -1020 13 0 20 -7 20 -20 0 -13 7 -20 20 -20 13 0 20 -7 20 -20 0
-20 7 -20 580 -20 573 0 580 0 580 20 0 13 7 20 20 20 13 0 20 7 20 20 0 13 7
20 20 20 20 0 20 7 20 1020 0 1013 0 1020 20 1020 13 0 20 7 20 20 0 19 7 20
180 20 173 0 180 1 180 20 0 17 7 20 40 20 l40 0 0 40 c0 33 3 40 20 40 20 0
20 7 20 320 0 313 0 320 -20 320 -17 0 -20 7 -20 40 l0 40 -240 0 -240 0 0
200 c0 193 1 200 20 200 17 0 20 7 20 40 l0 40 40 0 c33 0 40 3 40 20 0 19 7
20 100 20 93 0 100 -1 100 -20 0 -18 7 -20 60 -20 53 0 60 -2 60 -20 0 -18 7
-20 80 -20 73 0 80 2 80 20 0 13 7 20 20 20 13 0 20 7 20 20 0 13 7 20 20 20
20 0 20 7 20 280 0 273 0 280 20 280 18 0 20 7 20 80 0 73 -2 80 -20 80 -17 0
-20 7 -20 40 l0 40 -40 0 c-33 0 -40 3 -40 20 0 18 -7 20 -80 20 -73 0 -80 2
-80 20 0 19 -7 20 -120 20 -113 0 -120 1 -120 20 0 19 -7 20 -220 20 -213 0
-220 -1 -220 -20z"/>
<path d="M3120 4380 c0 -17 -7 -20 -40 -20 -33 0 -40 -3 -40 -20 0 -13 -7 -20
-20 -20 -13 0 -20 -7 -20 -20 0 -17 -7 -20 -40 -20 -33 0 -40 -3 -40 -20 0
-13 -7 -20 -20 -20 -17 0 -20 -7 -20 -40 0 -33 -3 -40 -20 -40 -17 0 -20 -7
-20 -40 0 -33 -3 -40 -20 -40 -19 0 -20 -7 -20 -140 0 -133 1 -140 20 -140 17
0 20 -7 20 -40 0 -33 3 -40 20 -40 17 0 20 -7 20 -40 0 -33 3 -40 20 -40 13 0
20 -7 20 -20 0 -13 7 -20 20 -20 13 0 20 -7 20 -20 0 -17 7 -20 40 -20 33 0
40 -3 40 -20 0 -17 7 -20 40 -20 33 0 40 -3 40 -20 0 -18 7 -20 60 -20 53 0
60 -2 60 -20 0 -19 7 -20 160 -20 153 0 160 1 160 20 0 18 7 20 80 20 73 0 80
2 80 20 0 17 7 20 40 20 33 0 40 3 40 20 0 13 7 20 20 20 13 0 20 7 20 20 0
13 7 20 20 20 13 0 20 7 20 20 0 13 7 20 20 20 13 0 20 7 20 20 0 13 7 20 20
20 18 0 20 7 20 60 0 53 2 60 20 60 19 0 20 7 20 140 0 133 -1 140 -20 140
-17 0 -20 7 -20 40 0 33 -3 40 -20 40 -17 0 -20 7 -20 40 0 33 -3 40 -20 40
-13 0 -20 7 -20 20 0 13 -7 20 -20 20 -13 0 -20 7 -20 20 0 17 -7 20 -40 20
-33 0 -40 3 -40 20 0 17 -7 20 -40 20 -33 0 -40 3 -40 20 0 20 -7 20 -280 20
-273 0 -280 0 -280 -20z"/>
<path d="M12560 4380 c0 -17 -7 -20 -40 -20 -33 0 -40 -3 -40 -20 0 -13 -7
-20 -20 -20 -13 0 -20 -7 -20 -20 0 -17 -7 -20 -40 -20 -33 0 -40 -3 -40 -20
0 -13 -7 -20 -20 -20 -17 0 -20 -7 -20 -40 0 -33 -3 -40 -20 -40 -17 0 -20 -7
-20 -40 0 -33 -3 -40 -20 -40 -19 0 -20 -7 -20 -140 0 -133 1 -140 20 -140 17
0 20 -7 20 -40 0 -33 3 -40 20 -40 17 0 20 -7 20 -40 0 -33 3 -40 20 -40 13 0
20 -7 20 -20 0 -13 7 -20 20 -20 13 0 20 -7 20 -20 0 -17 7 -20 40 -20 33 0
40 -3 40 -20 0 -17 7 -20 40 -20 33 0 40 -3 40 -20 0 -18 7 -20 60 -20 53 0
60 -2 60 -20 0 -19 7 -20 160 -20 153 0 160 1 160 20 0 18 7 20 80 20 73 0 80
2 80 20 0 17 7 20 40 20 33 0 40 3 40 20 0 13 7 20 20 20 13 0 20 7 20 20 0
13 7 20 20 20 13 0 20 7 20 20 0 13 7 20 20 20 13 0 20 7 20 20 0 13 7 20 20
20 18 0 20 7 20 60 0 53 2 60 20 60 19 0 20 7 20 140 0 133 -1 140 -20 140
-17 0 -20 7 -20 40 0 33 -3 40 -20 40 -17 0 -20 7 -20 40 0 33 -3 40 -20 40
-13 0 -20 7 -20 20 0 13 -7 20 -20 20 -13 0 -20 7 -20 20 0 17 -7 20 -40 20
-33 0 -40 3 -40 20 0 17 -7 20 -40 20 -33 0 -40 3 -40 20 0 20 -7 20 -280 20
-273 0 -280 0 -280 -20z"/>
<path d="M40 4340 c0 -13 -7 -20 -20 -20 -20 0 -20 -7 -20 -2140 0 -2133 0
-2140 20 -2140 13 0 20 -7 20 -20 0 -20 7 -20 1240 -20 1233 0 1240 0 1240 20
0 13 7 20 20 20 20 0 20 7 20 580 0 573 0 580 -20 580 -13 0 -20 7 -20 20 0
13 -7 20 -20 20 -13 0 -20 7 -20 20 0 20 -7 20 -580 20 -573 0 -580 0 -580 20
0 13 -7 20 -20 20 -20 0 -20 7 -20 1480 0 1473 0 1480 -20 1480 -17 0 -20 7
-20 40 l0 40 -600 0 c-593 0 -600 0 -600 -20z"/>
<path d="M9480 4340 c0 -13 -7 -20 -20 -20 -20 0 -20 -7 -20 -2140 0 -2133 0
-2140 20 -2140 13 0 20 -7 20 -20 0 -20 7 -20 1240 -20 1233 0 1240 0 1240 20
0 13 7 20 20 20 20 0 20 7 20 580 0 573 0 580 -20 580 -13 0 -20 7 -20 20 0
13 -7 20 -20 20 -13 0 -20 7 -20 20 0 20 -7 20 -580 20 -573 0 -580 0 -580 20
0 13 -7 20 -20 20 -20 0 -20 7 -20 1480 0 1473 0 1480 -20 1480 -17 0 -20 7
-20 40 l0 40 -600 0 c-593 0 -600 0 -600 -20z"/>
<path d="M16903 3803 c-13 -2 -23 -11 -23 -19 0 -8 -9 -14 -20 -14 -15 0 -20
-7 -20 -25 0 -18 -5 -25 -20 -25 -20 0 -20 -7 -20 -310 0 -303 0 -310 -20
-310 -13 0 -20 -7 -20 -20 0 -13 -7 -20 -20 -20 -13 0 -20 -7 -20 -20 0 -19
-7 -20 -160 -20 -153 0 -160 -1 -160 -20 0 -13 -7 -20 -20 -20 -20 0 -20 -7
-20 -370 0 -363 0 -370 20 -370 13 0 20 -7 20 -20 0 -19 7 -20 149 -20 165 0
211 -6 211 -26 0 -8 9 -14 20 -14 20 0 20 -7 20 -630 0 -623 0 -630 20 -630
19 0 20 -7 20 -135 0 -128 1 -135 20 -135 18 0 20 -7 20 -60 0 -53 2 -60 20
-60 17 0 20 -7 20 -40 0 -33 3 -40 20 -40 17 0 20 -7 20 -40 0 -33 3 -40 20
-40 13 0 20 -7 20 -20 0 -13 7 -20 20 -20 13 0 20 -7 20 -20 0 -13 7 -20 20
-20 13 0 20 -7 20 -20 0 -13 7 -20 20 -20 13 0 20 -7 20 -20 0 -13 7 -20 20
-20 11 0 20 -6 20 -14 0 -9 15 -17 40 -21 23 -4 40 -12 40 -20 0 -8 17 -16 40
-20 25 -4 40 -12 40 -21 0 -10 12 -14 40 -14 33 0 40 -3 40 -20 0 -18 7 -20
89 -20 106 0 151 -8 151 -26 0 -12 46 -14 260 -14 214 0 260 2 260 14 0 17 44
26 131 26 52 0 69 3 69 14 0 16 43 26 111 26 42 0 49 3 49 20 0 13 7 20 20 20
11 0 20 7 20 15 0 8 9 15 20 15 20 0 20 7 20 435 0 428 0 435 -20 435 -13 0
-20 7 -20 20 0 13 -7 20 -20 20 -11 0 -20 7 -20 15 0 11 -11 15 -40 15 -29 0
-40 -4 -40 -15 0 -12 -20 -15 -120 -15 -113 0 -120 1 -120 20 0 13 -7 20 -20
20 -13 0 -20 7 -20 20 0 13 -7 20 -20 20 -18 0 -20 7 -20 60 0 53 -2 60 -20
60 -20 0 -20 7 -20 410 0 403 0 410 20 410 17 0 20 7 20 40 0 33 3 40 20 40
11 0 20 6 20 14 0 21 47 26 231 26 162 0 169 1 169 20 0 13 7 20 20 20 20 0
20 7 20 370 0 363 0 370 -20 370 -13 0 -20 7 -20 20 0 19 -7 20 -180 20 -173
0 -180 1 -180 20 0 17 -7 20 -40 20 l-40 0 0 40 c0 33 -3 40 -20 40 -20 0 -20
7 -20 315 0 308 0 315 -20 315 -11 0 -20 6 -20 14 0 7 -14 16 -31 20 -35 7
-1070 6 -1106 -1z"/>
<path d="M14560 3060 c0 -17 -7 -20 -49 -20 -68 0 -111 -10 -111 -26 0 -10
-13 -14 -40 -14 -33 0 -40 -3 -40 -20 0 -17 -7 -20 -40 -20 -33 0 -40 -3 -40
-20 0 -17 -7 -20 -40 -20 -33 0 -40 -3 -40 -19 0 -15 -10 -21 -40 -26 -30 -5
-40 -11 -40 -26 0 -12 -7 -19 -20 -19 -13 0 -20 -7 -20 -20 0 -13 -7 -20 -20
-20 -13 0 -20 -7 -20 -20 0 -13 -7 -20 -20 -20 -13 0 -20 -7 -20 -20 0 -13 -7
-20 -20 -20 -13 0 -20 -7 -20 -20 0 -13 -7 -20 -20 -20 -13 0 -20 -7 -20 -20
0 -13 -7 -20 -20 -20 -13 0 -20 -7 -20 -20 0 -13 -7 -20 -20 -20 -17 0 -20 -7
-20 -40 0 -33 -3 -40 -20 -40 -15 0 -20 -7 -20 -25 0 -18 -5 -25 -20 -25 -18
0 -20 -7 -20 -60 0 -53 -2 -60 -20 -60 -19 0 -20 -7 -20 -245 0 -238 1 -245
20 -245 18 0 20 -7 20 -60 0 -53 2 -60 20 -60 17 0 20 -7 20 -40 0 -33 3 -40
20 -40 15 0 20 -7 20 -25 0 -18 5 -25 20 -25 13 0 20 -7 20 -20 0 -13 7 -20
20 -20 13 0 20 -7 20 -20 0 -13 7 -20 20 -20 13 0 20 -7 20 -20 0 -13 7 -20
20 -20 13 0 20 -7 20 -19 0 -15 10 -21 40 -26 23 -4 40 -12 40 -20 0 -8 17
-16 40 -20 23 -4 40 -12 40 -20 0 -8 17 -16 40 -20 23 -4 40 -12 40 -20 0 -8
17 -16 40 -20 22 -4 40 -12 40 -20 0 -15 44 -25 111 -25 42 0 49 -3 49 -20 0
-18 7 -20 60 -20 53 0 60 -2 60 -20 0 -17 7 -20 40 -20 33 0 40 -3 40 -20 0
-17 7 -20 40 -20 33 0 40 -3 40 -20 0 -13 7 -20 20 -20 18 0 20 -7 20 -60 0
-53 -2 -60 -20 -60 -13 0 -20 -7 -20 -19 0 -15 -10 -21 -40 -26 -25 -4 -40
-12 -40 -21 0 -11 -21 -14 -100 -14 -82 0 -100 3 -100 15 0 11 -11 15 -39 15
-79 0 -161 13 -161 25 0 13 -43 25 -91 25 -18 0 -29 5 -29 14 0 9 -15 17 -40
21 -30 5 -40 11 -40 26 0 16 -7 19 -40 19 -33 0 -40 3 -40 20 0 18 -7 20 -69
20 -96 0 -131 -8 -131 -31 0 -12 -7 -19 -20 -19 -20 0 -20 -7 -20 -390 0 -383
0 -390 20 -390 13 0 20 -7 20 -20 0 -13 7 -20 20 -20 13 0 20 -7 20 -20 0 -13
7 -20 20 -20 11 0 20 -6 20 -14 0 -9 15 -17 40 -21 23 -4 40 -12 40 -20 0 -8
17 -16 40 -20 22 -4 40 -12 40 -20 0 -13 43 -25 91 -25 22 0 29 -5 29 -20 0
-18 7 -20 80 -20 73 0 80 -2 80 -20 0 -20 7 -20 520 -20 513 0 520 0 520 20 0
17 7 20 49 20 68 0 111 10 111 26 0 10 13 14 40 14 33 0 40 3 40 20 0 17 7 20
40 20 33 0 40 3 40 20 0 17 7 20 40 20 33 0 40 3 40 19 0 15 10 21 40 26 30 5
40 11 40 26 0 16 7 19 40 19 33 0 40 3 40 20 0 13 7 20 20 20 13 0 20 7 20 20
0 13 7 20 20 20 13 0 20 7 20 20 0 13 7 20 20 20 13 0 20 7 20 20 0 13 7 20
20 20 13 0 20 7 20 20 0 13 7 20 20 20 15 0 20 7 20 25 0 18 5 25 20 25 16 0
20 7 20 35 0 28 4 35 20 35 17 0 20 7 20 45 0 38 3 45 20 45 17 0 20 7 20 40
0 33 3 40 20 40 18 0 20 7 20 80 0 73 2 80 20 80 19 0 20 7 20 210 0 203 -1
210 -20 210 -18 0 -20 7 -20 60 0 53 -2 60 -20 60 -17 0 -20 7 -20 40 0 33 -3
40 -20 40 -17 0 -20 7 -20 40 0 33 -3 40 -20 40 -13 0 -20 7 -20 20 0 13 -7
20 -20 20 -13 0 -20 7 -20 20 0 13 -7 20 -20 20 -13 0 -20 7 -20 20 0 13 -7
20 -20 20 -13 0 -20 7 -20 19 0 15 -10 21 -40 26 -30 5 -40 11 -40 26 0 16 -7
19 -40 19 -33 0 -40 3 -40 20 0 17 -7 20 -40 20 -33 0 -40 3 -40 20 0 17 -7
20 -40 20 -33 0 -40 3 -40 20 0 18 -7 20 -80 20 -73 0 -80 2 -80 20 0 18 -7
20 -80 20 -73 0 -80 2 -80 20 0 18 -7 20 -60 20 -53 0 -60 2 -60 20 0 13 -7
20 -20 20 -17 0 -20 7 -20 40 0 33 3 40 20 40 15 0 20 7 20 25 0 25 1 25 80
25 64 0 80 3 80 15 0 13 20 15 120 15 100 0 120 -2 120 -15 0 -12 16 -15 80
-15 73 0 80 -2 80 -20 0 -15 7 -20 29 -20 49 0 91 -12 91 -26 0 -11 19 -14 80
-14 64 0 80 3 80 15 0 8 9 15 20 15 15 0 20 7 20 25 0 18 5 25 20 25 20 0 20
7 20 350 0 343 0 350 -20 350 -13 0 -20 7 -20 20 0 13 -7 20 -20 20 -13 0 -20
7 -20 20 0 17 -7 20 -40 20 -27 0 -40 4 -40 14 0 17 -44 26 -131 26 -62 0 -69
2 -69 20 0 19 -7 20 -200 20 -193 0 -200 1 -200 20 0 20 -7 20 -420 20 -413 0
-420 0 -420 -20z"/>
<path d="M2840 3020 c0 -13 -7 -20 -20 -20 -13 0 -20 -7 -20 -20 0 -13 -7 -20
-20 -20 -20 0 -20 -7 -20 -1440 0 -1433 0 -1440 20 -1440 13 0 20 -7 20 -20 0
-13 7 -20 20 -20 13 0 20 -7 20 -20 0 -20 7 -20 560 -20 553 0 560 0 560 20 0
13 7 20 20 20 13 0 20 7 20 20 0 13 7 20 20 20 20 0 20 7 20 1440 0 1433 0
1440 -20 1440 -13 0 -20 7 -20 20 0 13 -7 20 -20 20 -13 0 -20 7 -20 20 0 20
-7 20 -560 20 -553 0 -560 0 -560 -20z"/>
<path d="M12280 3020 c0 -13 -7 -20 -20 -20 -13 0 -20 -7 -20 -20 0 -13 -7
-20 -20 -20 -20 0 -20 -7 -20 -1440 0 -1433 0 -1440 20 -1440 13 0 20 -7 20
-20 0 -13 7 -20 20 -20 13 0 20 -7 20 -20 0 -20 7 -20 560 -20 553 0 560 0
560 20 0 13 7 20 20 20 13 0 20 7 20 20 0 13 7 20 20 20 20 0 20 7 20 1440 0
1433 0 1440 -20 1440 -13 0 -20 7 -20 20 0 13 -7 20 -20 20 -13 0 -20 7 -20
20 0 20 -7 20 -560 20 -553 0 -560 0 -560 -20z"/>
<path d="M7730 2980 c0 -19 -7 -20 -130 -20 -123 0 -130 -1 -130 -20 0 -18 -7
-20 -75 -20 -68 0 -75 -2 -75 -20 0 -17 -7 -20 -40 -20 -33 0 -40 -3 -40 -20
0 -18 -7 -20 -55 -20 -48 0 -55 -2 -55 -20 0 -13 -7 -20 -20 -20 -13 0 -20 -7
-20 -20 0 -16 -7 -20 -35 -20 -28 0 -35 -4 -35 -20 0 -13 -7 -20 -20 -20 -13
0 -20 -7 -20 -20 0 -13 -7 -20 -20 -20 -13 0 -20 -7 -20 -20 0 -13 -7 -20 -20
-20 -13 0 -20 -7 -20 -20 0 -13 -7 -20 -20 -20 -13 0 -20 -7 -20 -20 0 -11 -7
-20 -15 -20 -8 0 -15 -9 -15 -20 0 -13 -7 -20 -20 -20 -13 0 -20 -7 -20 -20 0
-13 -7 -20 -20 -20 -17 0 -20 -7 -20 -40 0 -33 -3 -40 -20 -40 -17 0 -20 -7
-20 -40 0 -28 -4 -40 -14 -40 -9 0 -17 -15 -21 -40 -4 -25 -12 -40 -21 -40
-10 0 -14 -12 -14 -40 0 -27 -4 -40 -14 -40 -16 0 -26 -43 -26 -111 0 -35 -4
-49 -14 -49 -23 0 -26 -50 -26 -420 0 -370 3 -420 26 -420 11 0 14 -19 14 -80
0 -73 2 -80 20 -80 18 0 20 -7 20 -60 0 -53 2 -60 20 -60 17 0 20 -7 20 -40 0
-28 4 -40 14 -40 9 0 17 -15 21 -40 4 -25 12 -40 21 -40 8 0 14 -9 14 -20 0
-13 7 -20 20 -20 17 0 20 -7 20 -40 0 -33 3 -40 20 -40 13 0 20 -7 20 -20 0
-11 7 -20 15 -20 8 0 15 -9 15 -20 0 -13 7 -20 19 -20 15 0 21 -10 26 -40 4
-25 12 -40 21 -40 8 0 14 -9 14 -20 0 -16 7 -20 35 -20 28 0 35 -4 35 -20 0
-13 7 -20 20 -20 13 0 20 -7 20 -20 0 -13 7 -20 20 -20 13 0 20 -7 20 -20 0
-16 7 -20 35 -20 28 0 35 -4 35 -20 0 -15 7 -20 25 -20 18 0 25 -5 25 -20 0
-16 7 -20 35 -20 28 0 35 -4 35 -20 0 -18 7 -20 55 -20 48 0 55 -2 55 -20 0
-18 7 -20 60 -20 53 0 60 -2 60 -20 0 -18 7 -20 75 -20 68 0 75 -2 75 -20 0
-20 7 -20 415 -20 408 0 415 0 415 20 0 19 7 20 95 20 88 0 95 1 95 20 0 18 7
20 75 20 68 0 75 2 75 20 0 18 7 20 55 20 48 0 55 2 55 20 0 17 7 20 40 20 33
0 40 3 40 20 0 13 7 20 20 20 13 0 20 7 20 20 0 11 7 20 15 20 13 0 15 47 15
360 0 313 -2 360 -15 360 -8 0 -15 9 -15 20 0 13 -7 20 -20 20 -13 0 -20 7
-20 20 0 19 -7 20 -95 20 -88 0 -95 -1 -95 -20 0 -18 -7 -20 -55 -20 -48 0
-55 -2 -55 -20 0 -18 -7 -20 -60 -20 -53 0 -60 -2 -60 -20 0 -19 -7 -20 -150
-20 -143 0 -150 -1 -150 -20 0 -11 -7 -20 -15 -20 -8 0 -15 9 -15 20 0 19 -7
20 -115 20 -108 0 -115 1 -115 20 0 18 -7 20 -55 20 -48 0 -55 2 -55 20 0 15
-7 20 -25 20 -18 0 -25 5 -25 20 0 16 -7 20 -35 20 -28 0 -35 4 -35 20 0 11
-6 20 -14 20 -15 0 -26 42 -26 100 0 21 3 52 6 69 6 27 10 31 40 31 27 0 34 4
34 20 0 19 7 20 265 20 258 0 265 1 265 20 0 20 7 20 340 20 333 0 340 0 340
20 0 16 7 20 35 20 28 0 35 4 35 20 0 13 7 20 20 20 13 0 20 7 20 20 0 13 7
20 20 20 19 0 20 7 20 249 0 263 -4 311 -26 311 -10 0 -14 16 -14 60 0 53 -2
60 -20 60 -18 0 -20 7 -20 60 0 53 -2 60 -20 60 -17 0 -20 7 -20 40 0 29 -4
40 -15 40 -8 0 -15 9 -15 20 0 13 -7 20 -20 20 -17 0 -20 7 -20 40 0 33 -3 40
-20 40 -13 0 -20 7 -20 20 0 13 -7 20 -20 20 -13 0 -20 7 -20 20 0 11 -7 20
-15 20 -8 0 -15 9 -15 20 0 13 -7 20 -20 20 -13 0 -20 7 -20 20 0 13 -7 20
-20 20 -13 0 -20 7 -20 20 0 13 -7 20 -20 20 -13 0 -20 7 -20 20 0 16 -7 20
-35 20 -28 0 -35 4 -35 20 0 17 -7 20 -40 20 -33 0 -40 3 -40 20 0 16 -7 20
-35 20 -28 0 -35 4 -35 20 0 17 -7 20 -40 20 -33 0 -40 3 -40 20 0 18 -7 20
-75 20 -68 0 -75 2 -75 20 0 19 -7 20 -130 20 -123 0 -130 1 -130 20 0 19 -7
20 -175 20 -168 0 -175 -1 -175 -20z m190 -680 c0 -17 7 -20 40 -20 33 0 40
-3 40 -20 0 -13 7 -20 20 -20 17 0 20 -7 20 -40 0 -29 4 -40 15 -40 11 0 15
-11 15 -40 0 -28 -4 -40 -14 -40 -9 0 -17 -15 -21 -40 -4 -25 -12 -40 -21 -40
-8 0 -14 -9 -14 -20 0 -18 -7 -20 -60 -20 -53 0 -60 -2 -60 -20 0 -19 -7 -20
-205 -20 -198 0 -205 1 -205 20 0 11 -6 20 -14 20 -16 0 -26 43 -26 111 0 42
3 49 20 49 17 0 20 7 20 40 0 33 3 40 20 40 13 0 20 7 20 20 0 16 7 20 35 20
28 0 35 4 35 20 0 13 7 20 20 20 13 0 20 7 20 20 0 19 7 20 150 20 143 0 150
-1 150 -20z"/>
</g>
</svg>
