<?xml version="1.0" standalone="no"?>
<!DOCTYPE svg PUBLIC "-//W3C//DTD SVG 20010904//EN"
 "http://www.w3.org/TR/2001/REC-SVG-20010904/DTD/svg10.dtd">
<svg version="1.0" xmlns="http://www.w3.org/2000/svg"
 width="728.000000pt" height="166.000000pt" viewBox="0 0 728.000000 166.000000"
 preserveAspectRatio="xMidYMid meet">

<g transform="translate(0.000000,166.000000) scale(0.100000,-0.100000)"
fill="#000000" stroke="none">
<path d="M1123 1459 c-13 -5 -23 -12 -23 -16 0 -4 -1 -291 -2 -636 0 -408 3
-632 9 -638 6 -6 52 -11 102 -12 72 -2 94 1 101 13 5 9 9 270 10 637 0 725 10
664 -107 662 -38 -1 -78 -5 -90 -10z"/>
<path d="M1920 1463 c-118 -2 -218 -7 -222 -11 -5 -5 -9 -296 -9 -648 l-1
-639 106 -3 106 -3 10 26 c6 15 10 132 10 264 l0 238 196 6 c148 4 199 9 205
19 5 7 8 56 7 108 l-3 95 -202 3 -203 2 0 139 c0 119 2 140 18 154 15 13 54
16 249 19 127 2 235 6 239 11 11 11 11 194 -1 205 -13 13 -235 19 -505 15z"/>
<path d="M2907 1463 c-153 -2 -209 -7 -213 -16 -2 -6 -5 -297 -7 -645 -2 -555
0 -633 13 -636 8 -2 182 -3 385 -2 l370 1 3 86 c1 47 -2 97 -7 112 l-10 26
-249 3 c-195 2 -253 6 -266 17 -14 12 -16 33 -14 150 l3 136 205 5 205 5 0
105 0 105 -205 5 -205 5 0 143 c1 115 4 145 15 152 8 6 115 10 238 10 135 0
231 4 243 10 17 10 19 22 19 110 0 54 -3 101 -7 103 -14 8 -301 14 -516 10z"/>
<path d="M4763 1460 c-13 -5 -23 -13 -23 -17 -5 -592 -5 -1265 0 -1273 8 -12
193 -20 204 -9 4 4 7 293 8 643 1 482 -2 640 -11 649 -14 14 -147 19 -178 7z"/>
<path d="M5545 1457 c-134 -44 -231 -169 -243 -312 -10 -127 67 -229 330 -439
159 -126 194 -181 168 -260 -23 -71 -103 -110 -177 -86 -54 18 -138 78 -208
149 -33 34 -67 61 -76 61 -9 0 -24 -11 -32 -24 -9 -13 -22 -29 -29 -37 -80
-83 -77 -105 20 -199 189 -183 431 -225 592 -103 60 46 95 90 127 159 22 48
25 66 21 124 -6 80 -41 163 -95 224 -21 24 -85 81 -142 127 -201 161 -252 219
-265 299 -17 98 108 162 221 115 20 -9 60 -38 89 -65 29 -28 62 -50 73 -50 19
0 101 64 128 99 39 50 -11 107 -156 179 -92 46 -96 47 -200 49 -67 2 -121 -2
-146 -10z"/>
<path d="M123 1437 c-7 -15 -11 -239 -12 -649 -2 -594 -1 -627 16 -631 32 -8
708 -7 721 2 8 5 12 37 13 101 1 79 -2 96 -17 107 -13 10 -75 13 -249 13 -166
0 -234 3 -243 12 -9 9 -12 137 -12 514 0 303 -4 513 -10 528 -9 25 -12 26
-103 26 -88 0 -94 -1 -104 -23z"/>
<path d="M3761 1442 c-6 -12 -10 -234 -11 -610 0 -325 -3 -604 -6 -620 -12
-58 -12 -58 379 -60 267 -1 358 2 365 11 15 19 10 181 -7 200 -12 15 -42 17
-252 17 l-239 0 -11 28 c-8 18 -9 155 -5 432 3 223 3 452 -1 510 l-8 105 -97
3 c-86 2 -98 1 -107 -16z"/>
<path d="M6252 1447 c-16 -19 -18 -173 -2 -192 10 -12 41 -15 171 -15 136 0
159 -2 167 -16 6 -10 8 -226 5 -528 -2 -287 -1 -517 4 -524 11 -14 206 -22
220 -9 4 5 8 242 8 526 0 402 3 521 13 533 9 12 44 16 162 20 100 3 154 9 165
18 19 16 22 169 3 188 -18 18 -901 17 -916 -1z"/>
</g>
</svg>
