<?xml version="1.0" standalone="no"?>
<!DOCTYPE svg PUBLIC "-//W3C//DTD SVG 20010904//EN"
 "http://www.w3.org/TR/2001/REC-SVG-20010904/DTD/svg10.dtd">
<svg version="1.0" xmlns="http://www.w3.org/2000/svg"
 width="338.000000pt" height="328.000000pt" viewBox="0 0 338.000000 328.000000"
 preserveAspectRatio="xMidYMid meet">

<g transform="translate(0.000000,328.000000) scale(0.100000,-0.100000)"
fill="#000000" stroke="none">
<path d="M1596 2950 c-301 -34 -575 -162 -788 -368 -264 -255 -402 -563 -415
-927 -23 -667 434 -1240 1094 -1372 123 -24 386 -24 503 0 272 58 507 183 695
372 200 199 333 452 380 719 20 116 20 353 0 469 -83 474 -424 875 -878 1036
-179 63 -413 91 -591 71z m603 -579 c149 -46 267 -168 305 -316 23 -87 23
-803 1 -890 -22 -84 -60 -147 -126 -210 -70 -67 -159 -111 -254 -125 -92 -13
-702 -13 -785 1 -189 30 -344 180 -380 368 -6 30 -10 210 -10 413 0 289 3 372
16 428 16 70 65 163 112 213 42 44 122 93 187 116 57 19 83 20 467 21 371 0
411 -2 467 -19z"/>
<path d="M1293 2209 c-63 -24 -143 -107 -161 -166 -8 -28 -12 -157 -12 -435 0
-448 2 -460 74 -533 83 -82 66 -80 546 -80 417 0 426 0 466 22 22 12 57 40 78
63 73 81 71 67 71 530 l0 415 -27 50 c-31 60 -67 95 -128 127 -45 23 -47 23
-450 25 -385 2 -408 1 -457 -18z m916 -115 c39 -33 49 -82 25 -122 -33 -57
-103 -69 -153 -26 -26 21 -31 33 -31 68 0 92 90 138 159 80z m-307 -131 c265
-125 307 -481 78 -662 -176 -139 -439 -101 -563 81 -53 78 -70 130 -70 228 -1
76 2 93 32 157 23 50 50 88 86 122 89 84 161 112 285 108 72 -2 95 -7 152 -34z"/>
<path d="M1645 1817 c-91 -44 -135 -113 -135 -209 1 -173 176 -279 331 -200
135 68 168 248 64 355 -48 50 -87 68 -154 74 -45 3 -66 -1 -106 -20z"/>
</g>
</svg>
