<?xml version="1.0" standalone="no"?>
<!DOCTYPE svg PUBLIC "-//W3C//DTD SVG 20010904//EN"
 "http://www.w3.org/TR/2001/REC-SVG-20010904/DTD/svg10.dtd">
<svg version="1.0" xmlns="http://www.w3.org/2000/svg"
 width="396.000000pt" height="334.000000pt" viewBox="0 0 396.000000 334.000000"
 preserveAspectRatio="xMidYMid meet">

<g transform="translate(0.000000,334.000000) scale(0.100000,-0.100000)"
fill="#000000" stroke="none">
<path d="M1855 2970 c-307 -34 -585 -169 -805 -390 -196 -197 -314 -412 -372
-683 -29 -135 -31 -390 -5 -516 62 -290 174 -500 376 -701 162 -161 309 -255
509 -324 160 -55 253 -70 442 -70 176 -1 256 11 414 61 381 119 709 433 849
813 59 158 80 280 80 465 1 231 -32 380 -129 584 -180 381 -540 661 -953 741
-117 23 -299 32 -406 20z m282 -641 c374 -51 653 -316 653 -619 0 -342 -318
-604 -760 -627 -109 -6 -117 -8 -169 -41 -144 -92 -340 -163 -394 -143 -43 17
-35 48 38 141 64 80 90 119 83 124 -2 1 -33 21 -69 44 -125 80 -239 219 -275
337 -24 79 -29 209 -11 282 34 132 113 249 224 333 188 142 432 203 680 169z"/>
</g>
</svg>
